<?xml version="1.0" encoding="UTF-8" standalone="no"?><!DOCTYPE svg PUBLIC "-//W3C//DTD SVG 1.1//EN" "http://www.w3.org/Graphics/SVG/1.1/DTD/svg11.dtd"><svg width="100%" height="100%" viewBox="0 0 267 267" version="1.1" xmlns="http://www.w3.org/2000/svg" xmlns:xlink="http://www.w3.org/1999/xlink" xml:space="preserve" xmlns:serif="http://www.serif.com/" style="fill-rule:evenodd;clip-rule:evenodd;stroke-linejoin:round;stroke-miterlimit:2;"><clipPath id="_clip1"><rect x="25.002" y="24.998" width="216.667" height="216.667"/></clipPath><g clip-path="url(#_clip1)"><path d="M56.74,241.666l153.191,0c17.501,0 31.738,-14.238 31.738,-31.738l0,-153.191c0,-17.501 -14.238,-31.738 -31.738,-31.738l-153.191,0c-17.501,0 -31.738,14.238 -31.738,31.738l0,153.191c0,17.501 14.238,31.738 31.738,31.738Zm-19.043,-184.929c0,-10.5 8.543,-19.043 19.043,-19.043l153.191,0c10.5,0 19.043,8.543 19.043,19.043l0,153.191c0,10.5 -8.543,19.043 -19.043,19.043l-153.191,0c-10.5,0 -19.043,-8.543 -19.043,-19.043l0,-153.191Z" style="fill-rule:nonzero;"/><path d="M133.335,190.461c31.5,0 57.129,-25.629 57.129,-57.129c0,-31.5 -25.629,-57.129 -57.129,-57.129c-31.5,0 -57.129,25.629 -57.129,57.129c0,31.5 25.629,57.129 57.129,57.129Zm0,-101.563c24.501,0 44.434,19.932 44.434,44.434c0,24.501 -19.932,44.434 -44.434,44.434c-24.501,0 -44.434,-19.932 -44.434,-44.434c0,-24.501 19.932,-44.434 44.434,-44.434Z" style="fill-rule:nonzero;"/><path d="M196.812,88.898c10.5,0 19.043,-8.543 19.043,-19.043c0,-10.5 -8.543,-19.043 -19.043,-19.043c-10.5,0 -19.043,8.543 -19.043,19.043c0,10.5 8.543,19.043 19.043,19.043Zm0,-25.391c3.499,0 6.348,2.848 6.348,6.348c0,3.499 -2.848,6.348 -6.348,6.348c-3.499,0 -6.348,-2.848 -6.348,-6.348c0,-3.499 2.848,-6.348 6.348,-6.348Z" style="fill-rule:nonzero;"/></g></svg>